<svg width="245" height="559" viewBox="0 0 245 559" fill="none" xmlns="http://www.w3.org/2000/svg">
<path d="M-33.9369 20.5646H-24.3478L-33.9369 50.1438V20.5646ZM-0.894409 20.5646H8.69462L-0.894409 50.1438V20.5646ZM-10.911 20.5646L-20.5 50.1438H-10.911V20.5646ZM32.148 20.5646H41.7371L32.148 50.1438V20.5646ZM22.1315 20.5646L12.5424 50.1438H22.1315V20.5646ZM65.1905 20.5646H74.7795L65.1905 50.1438V20.5646ZM55.1739 20.5646L45.5849 50.1438H55.1739V20.5646ZM98.2329 20.5646H107.822L98.2329 50.1438V20.5646ZM88.2164 20.5646L78.6273 50.1438H88.2164V20.5646ZM131.275 20.5646H140.864L131.275 50.1438V20.5646ZM121.259 20.5646L111.67 50.1438H121.259V20.5646ZM164.318 20.5646H173.907L164.318 50.1438V20.5646ZM154.301 20.5646L144.712 50.1438H154.301V20.5646ZM197.36 20.5646H206.949L197.36 50.1438V20.5646ZM187.283 20.5646L177.694 50.1438H187.283V20.5646ZM230.403 20.5646H239.992L230.403 50.1438V20.5646ZM220.325 20.5646L210.797 50.1438H220.386V20.5646H220.325ZM245 46.4816L243.84 50.1438H245V46.4816ZM-45.4803 57.656H-35.8913L-45.4803 87.2352V57.656ZM-12.4379 57.656H-2.84886L-12.4379 87.2352V57.656ZM-22.4545 57.656L-32.0435 87.2352H-22.4545V57.656ZM20.6046 57.656H30.1936L20.6046 87.2352V57.656ZM10.588 57.656L0.998966 87.2352H10.588V57.656ZM53.647 57.656H63.236L53.647 87.2352V57.656ZM43.6304 57.656L34.0414 87.2352H43.6304V57.656ZM86.6894 57.656H96.2785L86.6894 87.2352V57.656ZM76.6729 57.656L67.0838 87.2352H76.6729V57.656ZM119.732 57.656H129.321L119.732 87.2352V57.656ZM109.654 57.656L100.065 87.2352H109.654V57.656ZM152.774 57.656H162.363L152.774 87.2352V57.656ZM142.697 57.656L133.108 87.2352H142.697V57.656ZM185.817 57.656H195.406L185.817 87.2352V57.656ZM175.739 57.656L166.211 87.2352H175.8V57.656H175.739ZM218.859 57.656H228.448L218.859 87.2352V57.656ZM208.782 57.656L199.193 87.2352H208.782V57.656ZM241.824 57.656L232.235 87.2352H241.824V57.656ZM-23.9814 94.6535H-14.3923L-23.9814 124.233V94.6535ZM-33.9979 94.6535L-43.587 124.233H-33.9979V94.6535ZM9.06108 94.6535H18.6501L9.06108 124.233V94.6535ZM-0.955482 94.6535L-10.5445 124.233H-0.955482V94.6535ZM42.1035 94.6535H51.6926L42.1035 124.233V94.6535ZM32.087 94.6535L22.4979 124.233H32.087V94.6535ZM75.146 94.6535H84.735L75.146 124.233V94.6535ZM65.0683 94.6535L55.4793 124.233H65.0683V94.6535ZM108.188 94.6535H117.777L108.188 124.233V94.6535ZM98.1108 94.6535L88.5217 124.233H98.1108V94.6535ZM141.231 94.6535H150.82L141.231 124.233V94.6535ZM131.153 94.6535L121.625 124.233H131.214V94.6535H131.153ZM174.273 94.6535H183.862L174.273 124.233V94.6535ZM164.196 94.6535L154.607 124.233H164.196V94.6535ZM207.255 94.6535H216.844L207.255 124.233V94.6535ZM197.238 94.6535L187.649 124.233H197.238V94.6535ZM240.297 94.6535H244.939V109.866L240.297 124.233V94.6535ZM230.281 94.6535L220.692 124.233H230.281V94.6535ZM-35.5248 131.745H-25.9358L-35.5248 161.324V131.745ZM-2.4824 131.745H7.10662L-2.4824 161.324V131.745ZM-12.56 131.745L-22.1491 161.324H-12.56V131.745ZM30.56 131.745H40.1491L30.56 161.324V131.745ZM20.4824 131.745L10.8934 161.324H20.4824V131.745ZM63.6025 131.745H73.1915L63.6025 161.324V131.745ZM53.5248 131.745L43.9358 161.324H53.5248V131.745ZM96.6449 131.745H106.234L96.6449 161.324V131.745ZM86.5673 131.745L76.9783 161.324H86.5673V131.745ZM129.687 131.745H139.276L129.687 161.324V131.745ZM119.61 131.745L110.021 161.324H119.61V131.745ZM162.669 131.745H172.258L162.669 161.324V131.745ZM152.652 131.745L143.063 161.324H152.652V131.745ZM195.711 131.745H205.3L195.711 161.324V131.745ZM185.695 131.745L176.106 161.324H185.695V131.745ZM228.754 131.745H238.343L228.754 161.324V131.745ZM218.737 131.745L209.148 161.324H218.737V131.745ZM245 152.685L242.19 161.324H245V152.685ZM-47.0683 168.742H-37.4793L-47.0683 198.322V168.742ZM-14.0259 168.742H-4.43685L-14.0259 198.322V168.742ZM-24.1035 168.742L-33.6925 198.322H-24.1035V168.742ZM19.0166 168.742H28.6056L19.0166 198.322V168.742ZM8.93892 168.742L-0.650101 198.322H8.93892V168.742ZM52.059 168.742H61.648L52.059 198.322V168.742ZM41.9814 168.742L32.3923 198.322H41.9814V168.742ZM85.0404 168.742H94.6294L85.0404 198.322V168.742ZM75.0238 168.742L65.4348 198.322H75.0238V168.742ZM118.083 168.742H127.672L118.083 198.322V168.742ZM108.066 168.742L98.4772 198.322H108.066V168.742ZM151.125 168.742H160.714L151.125 198.322V168.742ZM141.109 168.742L131.52 198.322H141.109V168.742ZM184.168 168.742H193.757L184.168 198.322V168.742ZM174.151 168.742L164.562 198.322H174.151V168.742ZM217.21 168.742H226.799L217.21 198.322V168.742ZM207.194 168.742L197.605 198.322H207.194V168.742ZM240.236 168.742L230.647 198.322H240.236V168.742ZM-25.5694 205.834H-15.9803L-25.5694 235.413V205.834ZM-35.647 205.834L-45.236 235.413H-35.647V205.834ZM7.47308 205.834H17.0621L7.47308 235.413V205.834ZM-2.60456 205.834L-12.1936 235.413H-2.60456V205.834ZM40.4545 205.834H50.0435L40.4545 235.413V205.834ZM30.4379 205.834L20.8489 235.413H30.4379V205.834ZM73.4969 205.834H83.0859L73.4969 235.413V205.834ZM63.4803 205.834L53.8913 235.413H63.4803V205.834ZM106.539 205.834H116.128L106.539 235.413V205.834ZM96.5228 205.834L86.9337 235.413H96.5228V205.834ZM139.582 205.834H149.171L139.582 235.413V205.834ZM129.565 205.834L119.976 235.413H129.565V205.834ZM172.624 205.834H182.213L172.624 235.413V205.834ZM162.608 205.834L153.019 235.413H162.608V205.834ZM205.667 205.834H215.256L205.667 235.413V205.834ZM195.65 205.834L186.061 235.413H195.65V205.834ZM238.709 205.834H245V215.975L238.709 235.319V205.834ZM228.693 205.834L219.104 235.413H228.693V205.834ZM-37.1128 242.831H-27.5238L-37.1128 272.41V242.831ZM-4.13147 242.831H5.45756L-4.13147 272.41V242.831ZM-14.148 242.831L-23.7371 272.41H-14.148V242.831ZM28.911 242.831H38.5L28.911 272.41V242.831ZM18.8944 242.831L9.30538 272.41H18.8944V242.831ZM61.9534 242.831H71.5424L61.9534 272.41V242.831ZM51.9369 242.831L42.3478 272.41H51.9369V242.831ZM94.9959 242.831H104.585L94.9959 272.41V242.831ZM84.9793 242.831L75.3903 272.41H84.9793V242.831ZM128.038 242.831H137.627L128.038 272.41V242.831ZM118.022 242.831L108.433 272.41H118.022V242.831ZM161.081 242.831H170.67L161.081 272.41V242.831ZM151.064 242.831L141.475 272.41H151.064V242.831ZM194.123 242.831H203.712L194.123 272.41V242.831ZM184.107 242.831L174.518 272.41H184.107V242.831ZM227.166 242.831H236.755L227.166 272.41V242.831ZM217.088 242.831L207.499 272.41H217.088V242.831ZM245 258.795L240.602 272.41H245V258.795ZM-48.7174 279.923H-39.1284L-48.7174 309.502V279.923ZM-15.6749 279.923H-6.08592L-15.6749 309.502V279.923ZM-25.6915 279.923L-35.2805 309.502H-25.6915V279.923ZM17.3675 279.923H26.9565L17.3675 309.502V279.923ZM7.35093 279.923L-2.2381 309.502H7.35093V279.923ZM50.4099 279.923H59.999L50.4099 309.502V279.923ZM40.3934 279.923L30.8044 309.502H40.3934V279.923ZM83.4524 279.923H93.0414L83.4524 309.502V279.923ZM73.4358 279.923L63.8468 309.502H73.4358V279.923ZM116.495 279.923H126.084L116.495 309.502V279.923ZM106.478 279.923L96.8892 309.502H106.478V279.923ZM149.537 279.923H159.126L149.537 309.502V279.923ZM139.521 279.923L129.932 309.502H139.521V279.923ZM182.58 279.923H192.169L182.58 309.502V279.923ZM172.502 279.923L162.913 309.502H172.502V279.923ZM215.622 279.923H225.211L215.622 309.502V279.923ZM205.545 279.923L195.955 309.502H205.545V279.923ZM238.587 279.923L228.998 309.502H238.587V279.923ZM-27.2184 316.92H-17.6294L-27.2184 346.499V316.92ZM-37.235 316.92L-46.824 346.499H-37.235V316.92ZM5.82402 316.92H15.413L5.82402 346.499V316.92ZM-4.19255 316.92L-13.7816 346.499H-4.19255V316.92ZM38.8665 316.92H48.4555L38.8665 346.499V316.92ZM28.8499 316.92L19.2609 346.499H28.8499V316.92ZM71.9089 316.92H81.4979L71.9089 346.499V316.92ZM61.8923 316.92L52.3033 346.499H61.8923V316.92ZM104.951 316.92H114.54L104.951 346.499V316.92ZM94.9348 316.92L85.3458 346.499H94.9348V316.92ZM137.994 316.92H147.583L137.994 346.499V316.92ZM127.916 316.92L118.388 346.499H127.977V316.92H127.916ZM171.036 316.92H180.625L171.036 346.499V316.92ZM160.959 316.92L151.431 346.499H161.02V316.92H160.959ZM204.079 316.92H213.668L204.079 346.499V316.92ZM194.001 316.92L184.412 346.499H194.001V316.92ZM237.121 316.92H245V322.085L237.121 346.499V316.92ZM227.043 316.92L217.454 346.499H227.043V316.92ZM-38.7619 354.011H-29.1729L-38.7619 383.591V354.011ZM-5.71946 354.011H3.86956L-5.71946 383.591V354.011ZM-15.736 354.011L-25.3251 383.591H-15.736V354.011ZM27.323 354.011H36.912L27.323 383.591V354.011ZM17.3064 354.011L7.71739 383.591H17.3064V354.011ZM60.3654 354.011H69.9545L60.3654 383.591V354.011ZM50.2878 354.011L40.6988 383.591H50.2878V354.011ZM93.4079 354.011H102.997L93.4079 383.591V354.011ZM83.3302 354.011L73.7412 383.591H83.3302V354.011ZM126.45 354.011H136.039L126.45 383.591V354.011ZM116.373 354.011L106.784 383.591H116.373V354.011ZM159.493 354.011H169.082L159.493 383.591V354.011ZM149.415 354.011L139.826 383.591H149.415V354.011ZM192.474 354.011H202.063L192.474 383.591V354.011ZM182.458 354.011L172.869 383.591H182.458V354.011ZM225.517 354.011H235.106L225.517 383.591V354.011ZM215.5 354.011L205.911 383.591H215.5V354.011ZM245 364.998L239.014 383.591H245V364.998ZM-17.2629 391.009H-7.67391L-17.2629 420.588V391.009ZM-27.2795 391.009L-36.8685 420.588H-27.2795V391.009ZM15.7795 391.009H25.3685L15.7795 420.588V391.009ZM5.70186 391.009L-3.88716 420.588H5.70186V391.009ZM48.822 391.009H58.411L48.822 420.588V391.009ZM38.7443 391.009L29.1553 420.588H38.7443V391.009ZM81.8644 391.009H91.4534L81.8644 420.588V391.009ZM71.7868 391.009L62.1977 420.588H71.7868V391.009ZM114.907 391.009H124.496L114.907 420.588V391.009ZM104.829 391.009L95.2402 420.588H104.829V391.009ZM147.888 391.009H157.477L147.888 420.588V391.009ZM137.872 391.009L128.283 420.588H137.872V391.009ZM180.931 391.009H190.52L180.931 420.588V391.009ZM170.914 391.009L161.325 420.588H170.914V391.009ZM213.973 391.009H223.562L213.973 420.588V391.009ZM203.957 391.009L194.368 420.588H203.957V391.009ZM236.999 391.009L227.41 420.588H236.999V391.009ZM-28.8064 428.1H-19.2174L-28.8064 457.68V428.1ZM-38.8841 428.1L-48.412 457.68H-38.823V428.1H-38.8841ZM4.23603 428.1H13.8251L4.23603 457.68V428.1ZM-5.84161 428.1L-15.4306 457.68H-5.84161V428.1ZM37.2785 428.1H46.8675L37.2785 457.68V428.1ZM27.2008 428.1L17.6118 457.68H27.2008V428.1ZM70.3209 428.1H79.9099L70.3209 457.68V428.1ZM60.2433 428.1L50.6543 457.68H60.2433V428.1ZM103.302 428.1H112.891L103.302 457.68V428.1ZM93.2857 428.1L83.6967 457.68H93.2857V428.1ZM136.345 428.1H145.934L136.345 457.68V428.1ZM126.328 428.1L116.739 457.68H126.328V428.1ZM169.387 428.1H178.976L169.387 457.68V428.1ZM159.371 428.1L149.782 457.68H159.371V428.1ZM202.43 428.1H212.019L202.43 457.68V428.1ZM192.413 428.1L182.824 457.68H192.413V428.1ZM235.472 428.1H245V428.288L235.472 457.586V428.1ZM225.455 428.1L215.866 457.68H225.455V428.1ZM-40.3499 465.098H-30.7609L-40.3499 494.677V465.098ZM-7.30745 465.098H2.28157L-7.30745 494.677V465.098ZM-17.3851 465.098L-26.9741 494.677H-17.3851V465.098ZM25.6739 465.098H35.2629L25.6739 494.677V465.098ZM15.6573 465.098L6.06833 494.677H15.6573V465.098ZM58.7164 465.098H68.3054L58.7164 494.677V465.098ZM48.6998 465.098L39.1108 494.677H48.6998V465.098ZM91.7588 465.098H101.348L91.7588 494.677V465.098ZM81.7422 465.098L72.1532 494.677H81.7422V465.098ZM124.801 465.098H134.39L124.801 494.677V465.098ZM114.785 465.098L105.196 494.677H114.785V465.098ZM157.844 465.098H167.433L157.844 494.677V465.098ZM147.827 465.098L138.238 494.677H147.827V465.098ZM190.886 465.098H200.475L190.886 494.677V465.098ZM180.87 465.098L171.281 494.677H180.87V465.098ZM223.929 465.098H233.518L223.929 494.677V465.098ZM213.912 465.098L204.323 494.677H213.912V465.098ZM245 471.108L237.365 494.677H245V471.108ZM-18.912 502.189H-9.32298L-18.912 531.768V502.189ZM-28.9286 502.189L-38.5176 531.768H-28.9286V502.189ZM14.1304 502.189H23.7195L14.1304 531.768V502.189ZM4.11387 502.189L-5.47515 531.768H4.11387V502.189ZM47.1729 502.189H56.7619L47.1729 531.768V502.189ZM37.1563 502.189L27.5673 531.768H37.1563V502.189ZM80.2153 502.189H89.8044L80.2153 531.768V502.189ZM70.1988 502.189L60.6097 531.768H70.1988V502.189ZM113.258 502.189H122.847L113.258 531.768V502.189ZM103.241 502.189L93.6522 531.768H103.241V502.189ZM146.3 502.189H155.889L146.3 531.768V502.189ZM136.284 502.189L126.695 531.768H136.284V502.189ZM179.343 502.189H188.932L179.343 531.768V502.189ZM169.326 502.189L159.737 531.768H169.326V502.189ZM212.385 502.189H221.974L212.385 531.768V502.189ZM202.369 502.189L192.78 531.768H202.369V502.189ZM235.35 502.189L225.761 531.768H235.35V502.189ZM-50 50.1438V39.2511L-43.9534 20.5646V50.1438H-50ZM-50 102.541V94.6535H-47.4348L-50 102.541ZM-50 161.324V145.455L-45.5414 131.745V161.324H-50ZM-50 208.745V205.834H-49.0839L-50 208.745ZM-50 272.41V251.564L-47.1905 242.831V272.41H-50ZM-50 383.591V357.768L-48.7785 354.011V383.591H-50ZM-50 419.649V391.009H-40.7164L-50 419.649ZM-50 525.759V502.095H-42.3654L-50 525.759ZM-40.472 559H-46.8851L-40.472 539.187V559ZM-27.2795 559H-30.4555V539.187H-20.8665L-27.2795 559ZM-7.42961 559H-13.8426L-7.42961 539.187V559ZM5.76294 559H2.58696V539.187H12.176L5.76294 559ZM25.6128 559H19.1998L25.6128 539.187V559ZM38.8054 559H35.6294V539.187H45.2184L38.8054 559ZM58.6553 559H52.2422L58.6553 539.187V559ZM71.8478 559H68.6718V539.187H78.2609L71.8478 559ZM91.6977 559H85.2847L91.6977 539.187V559ZM104.89 559H101.714V539.187H111.303L104.89 559ZM124.74 559H118.327L124.74 539.187V559ZM137.933 559H134.757V539.187H144.346L137.933 559ZM157.722 559H151.309L157.722 539.187V559ZM170.975 559H167.799V539.187H177.388L170.975 559ZM190.764 559H184.351L190.764 539.187V559ZM204.018 559H200.842V539.187H210.431L204.018 559ZM223.806 559H217.393L223.806 539.187V559ZM237.06 559H233.884V539.187H243.473L237.06 559ZM241.946 0H245V3.66219L241.946 13.0524V0ZM226.555 0H231.869V13.1463H222.28L226.555 0ZM208.904 0H213.118L208.904 13.1463V0ZM193.512 0H198.826V13.1463H189.237L193.512 0ZM175.861 0H180.076L175.861 13.1463V0ZM160.47 0H165.784V13.1463H156.195L160.47 0ZM142.819 0H147.033L142.819 13.1463V0ZM127.428 0H132.741V13.1463H123.152L127.428 0ZM109.776 0H113.991L109.776 13.1463V0ZM94.3851 0H99.6988V13.1463H90.1097L94.3851 0ZM76.734 0H80.9482L76.734 13.1463V0ZM61.4037 0H66.7174V13.1463H57.1284L61.4037 0ZM43.6915 0H47.9058L43.6915 13.1463V0ZM28.3613 0H33.6749V13.1463H24.0859L28.3613 0ZM10.6491 0H14.8633L10.6491 13.1463V0ZM-4.68116 0H0.632507V13.1463H-8.95652L-4.68116 0ZM-22.3934 0H-18.1791L-22.3934 13.1463V0ZM-37.7236 0H-32.4099V13.1463H-41.999L-37.7236 0Z" fill="#F89E37"/>
</svg>
