<svg width="363" height="38" viewBox="0 0 363 38" fill="none" xmlns="http://www.w3.org/2000/svg">
<path d="M39.5186 0.119446H51.7081L39.5186 37.7416V0.119446ZM26.7857 0.119446L14.5963 37.7416H26.7857V0.119446ZM81.5217 0.119446H93.7112L81.5217 37.7416V0.119446ZM68.7888 0.119446L56.5994 37.7416H68.7888V0.119446ZM123.525 0.119446H135.714L123.525 37.7416V0.119446ZM110.792 0.119446L98.6025 37.7416H110.792V0.119446ZM165.528 0.119446H177.717L165.528 37.7416V0.119446ZM152.795 0.119446L140.606 37.7416H152.795V0.119446ZM207.531 0.119446H219.721L207.531 37.7416V0.119446ZM194.798 0.119446L182.609 37.7416H194.798V0.119446ZM249.534 0.119446H261.724L249.534 37.7416V0.119446ZM236.801 0.119446L224.612 37.7416H236.801V0.119446ZM291.537 0.119446H303.727L291.537 37.7416V0.119446ZM278.804 0.119446L266.615 37.7416H278.804V0.119446ZM333.54 0.119446H345.73L333.54 37.7416V0.119446ZM320.807 0.119446L308.618 37.7416H320.807V0.119446ZM362.733 0.119446L350.543 37.7416H362.733V0.119446ZM0 30.0978V0H9.70497L0 30.0978Z" fill="#F89E37"/>
</svg>
