<?xml version="1.0" encoding="utf-8"?><svg viewBox="0 0 1721 543" xmlns="http://www.w3.org/2000/svg" xmlns:xlink="http://www.w3.org/1999/xlink"><style>:root>svg{display:none}:root>svg:target{display:block}</style><svg fill="none" viewBox="0 0 326 537" id="about-bg"><path d="M195.978 189.598l128.823 74.203M324.781 263.8l-83.477 48.438M241.304 312.237l83.477 47.407M324.781 359.646l-83.477 48.437M241.304 408.083v31.948M241.349 440.031L75.425 535.876M75.41 535.876l-165.926-95.845M-8.06 455.489l83.478-47.406" stroke="#fff" stroke-width=".932" stroke-miterlimit="10" stroke-linecap="round"/><path d="M241.323 312.238l-45.345-26.796M-90.516 312.237L75.41 408.082" stroke="#fff" stroke-width=".622" stroke-miterlimit="10" stroke-linecap="round"/><path d="M158.848 455.489l82.447-47.406M75.425 408.083v127.793M75.425 408.083l83.477 47.406" stroke="#fff" stroke-width=".932" stroke-miterlimit="10" stroke-linecap="round"/><path d="M75.425 408.082l165.924-95.845M-45.188 53.56l154.589 89.661M109.406 388.502v-245.28" stroke="#fff" stroke-width=".622" stroke-miterlimit="10" stroke-linecap="round"/><path d="M103.237 147.343L-38.984 64.896M103.201 391.593v-244.25M-38.984 328.728L86.747 401.9M91.855 278.229V141.16M80.602 272.045V133.946M70.282 264.831V127.763M70.282 264.831l32.979 19.581M70.282 219.484l32.979 18.551M-21.495 119.518l54.621 31.948M33.153 151.466v158.711M33.126 310.177l-54.621-31.948M25.922 130.854v42.255M44.446 298.84l7.214 1.031 7.214 7.214 3.092 10.306-4.123 6.183H50.63l-7.214-7.214-3.092-10.306 4.123-7.214zM45.505 158.681h7.214l7.215 7.214 3.091 10.306-4.122 6.183h-7.214l-7.214-7.214-3.092-10.305 4.122-6.184zM19.754 316.36l7.214 1.031 7.214 7.214 3.092 10.306-3.092 6.183h-8.245l-7.214-7.214-2.06-10.306 3.09-7.214z" stroke="#fff" stroke-width=".311" stroke-miterlimit="10" stroke-linecap="round"/><path d="M-17.317 37.07L138.3 126.733M138.242 372.012V126.731M11.519 20.581l155.619 89.661M11.519 53.56V20.58M167.141 354.492v-244.25M40.323 4.092l155.619 89.662M40.323 37.071V4.092M195.978 338.003V91.693" stroke="#fff" stroke-width=".622" stroke-miterlimit="10" stroke-linecap="round"/><path d="M132.073 130.854L-10.148 48.407M132.132 375.104v-244.25M120.753 261.739V123.641M109.406 255.556V117.457M99.118 137.037v-25.765M160.972 113.334L18.751 31.918M18.751 31.918v25.764M160.937 358.615V113.334M149.59 245.251v-138.1M138.242 238.035V100.967M127.923 120.548V94.783M189.808 96.845L47.587 14.398M47.587 14.398v26.796M189.773 342.125V96.845M178.488 227.729V90.661M167.141 221.546V84.478M156.822 104.059V78.294M109.406 381.288l6.184 3.091M138.242 364.798l6.184 3.092M167.141 348.308l6.183 3.092M109.406 254.524l22.673 13.399M109.406 209.179l22.673 12.367M138.242 238.036l22.673 13.397M138.242 192.689l22.673 12.368M167.141 221.546l22.672 13.398M167.141 176.2l22.672 12.367" stroke="#fff" stroke-width=".311" stroke-miterlimit="10" stroke-linecap="round"/><path d="M11.519 20.581l28.856 16.49M-17.317 37.07l28.856 16.49M-45.188 338.002l120.58 70.08M196.004 338.002l-120.58 70.08" stroke="#fff" stroke-width=".622" stroke-miterlimit="10" stroke-linecap="round"/><path d="M25.922 283.382v32.978M25.922 258.647v14.429M25.922 202.995v47.408M25.922 182.383v11.337M.14 283.382l9.275 5.153M15.602 291.625l25.765 15.459M1.2 141.16l8.244 5.153M14.574 149.405L42.4 164.864" stroke="#fff" stroke-width=".311" stroke-miterlimit="10" stroke-linecap="round"/><path d="M-18.377 33.978l28.856 16.49M10.459 50.468V17.49M10.459 17.49l28.857 16.49M39.356 33.979V1M39.356 1l158.711 91.723M198.065 92.723v97.906" stroke="#fff" stroke-width=".932" stroke-miterlimit="10" stroke-linecap="round"/></svg><svg fill="none" viewBox="0 0 274 274" id="earth"><path d="M141.5 177.5c-2.441-1.723-4.545-1.936-7.5-1.5-6.58.97 7.769 6.893 13 11 6.052 4.752 11.766 17.925 16 11.5 1.538-2.335 4.095-5.962 1.5-7-17.5-7-14.5-8-23-14zM169 200.5c-.333-1.14-.489-1.812-.5-3-.051-5.5 9.934 0 17.506-1 11.086-1.464 34.273-15.753 27.994-6.5-5.172 7.621-13.024 6.912-21.994 9-9.539 2.221-20.961 8.5-23.006 1.5zM100.002 173.5c-.048-1.8 1-4.5 1-4.5s8.083 4.064 6 7c-1.398 1.97-4.213 3.125-6 1.5-1.192-1.083-.958-2.39-1-4zM178.5 173.5c4.057-3.565 7.8-8.9 9-10.5 1.2-1.6 3 .592 3 2 0 8.5 3.325 18.039-5 22.5-4.819 2.582-10.833 4.333-12 1.5-1.167-2.833-3.5-8.7-3.5-9.5 0-.8 5.448-3.318 8.5-6zM199.54 73.448c-.142-1.4-1.976-1.592-2-3-.044-2.568 5.58-1.398 6.5 1 .783 2.038-2.04 2.875-1.54 5 .349 1.485.667 1.75 1.54 3 2.514 3.597 4.669 6.163 4 10.5-.8 5.185-7.675 4.58-9.5 9.5-.826 2.227 1.315 5.466-1 6-2.322.536-3.202-2.635-3.5-5-.317-2.518.533-4.395 2.5-6 3.001-2.448 5.904-4.02 6.5-8 .635-4.235-5.19-5.774-4.5-10 .199-1.219 1.125-1.771 1-3zM80 14s17.582-.54 28.5-3c10.904-2.458 27-9.5 27-9.5" stroke="#fff" stroke-width="3"/><circle cx="137" cy="137" r="135.5" stroke="#fff" stroke-width="3"/><path d="M248.5 214.5c1-8-5.195-12.948-6.5-16-1.994-4.661 1.288-10.834-3.5-12.5-5.832-2.029 1.015 13.605-5 15-2.91.675-8.167.333-7.5-1.5.667-1.833 2-5.6 2-6 0-.4-6.159.577-9 1.5-10.508 3.416-9.865 13.285-19 19.5-6.211 4.226-13.647 6.051-16.5 13-2.329 5.672 2.988 5.449 2 11.5-.259 1.589-2.388 3.184-1 4 8.5 5 24-17 33-11 2.298 1.532 3 5.5 9.5 5.5M41.002 232.5s-8.574-10.15-8-18c.19-2.599 1.163-3.917 1.5-6.5 1.307-10.003-9.918-15.509-6.5-25 1.524-4.23 5.191-3.642 7.498-7.5 4.08-6.824 11.984-17.896 5.502-22.5-3.82-2.714-4.314 2-9 2-4 0-7.5-7.191-7.501-13.5 0-16-11.035-32.152 2.001-33.5 13.188-1.364 1.5 28.5 5.5 33.5 7.49 9.362 34.381 1.318 27.5-8.5-3.459-4.937-10.602-1.521-14-6.5-3.742-5.484-4.901-12.523 0-17 3.498-3.196 8.33 12.283 16.5 16 4.397 2 8.449-.275 12 3 3.496 3.223-.578 10.217 4 11.5 1.505.421 3.46-1.466 4 0 3.498 9.5 5.883 35.5 13.998 29 5.928-4.748-3.165-12.363 3.502-16 10.998-6 7.517-13.573 16-15.5 3.618-.822 6.055-1.377 9.5 0 5.536 2.212 2.116 13.954 8 13 2.514-.408 3.039-2.849 5.5-3.5 8.109-2.146 2.498 15 3.998 22 1.105 5.158 4.518 6.72 9.002 9.5 3.149 1.952 5.296 3.077 9 3 8.751-.183-12.358-8.904-14-17.5-.659-3.453-.611-5.188 1.498-8 3.515-4.686 4.731 9.003 10.502 8 5.349-.93 8.166-5.582 8.5-11 .402-6.514-11.738-6.593-10.5-13 .365-1.888.221-1.903 2-4.5 6.36-9.283 21.632-9.62 24.5-20.5 2.988-11.33-21.789-21.061-12-27.5 2.735-1.799 4.745-2.838 8-2.5 5.646.585 5.586 15.11 9.5 11 1.577-1.655 1.873-3.218 2-5.5.22-3.924-4.339-5.074-4.5-9-.174-4.28 3.615-5.81 4.5-10 1.342-6.351-8.482-14.825-2-14.5 4.413.221 4.236 3.687 8 6 5.691 3.496-3.873-12.666-10.5-13.5-3.619-.456-6.238 4.883-9 2.5-2.513-2.169-1.446-5.513 0-8.5 1.795-3.708 7.171-1.81 9-5.5 1.926-3.885-4.178-7.591-1.5-11 3.346-4.258 6.498 11 6.998 15 .752 6.019 6.95 12.06 11 7.5 3.713-4.18-2.52-9.057-5.998-13-2.102-2.384-1.946-7.179-5.002-11-3.63-4.539-5.164-7.74-11.5-9.444-11.301-3.04-16.413 11.34-27.998 13-8.138 1.165-14.894-3.436-23-2.056C105.5 31 64.504 56.236 77 39.5c2.809-3.763 10.135-4.385 8.502-8.5-.979-2.469-2.89-4.49-5.5-4-8.002 1.5-15.502 4-23.5 8-3.28 1.64-4.645 4.746-4.502 8.5.262 6.895 16.702-14.365 16-7.5-.347 3.397-3 4.5-4.498 7.5-3.083 6.176-10.736 13.496-15.5 8.5-2.003-2.101-.312-5.092-2.5-7C42.56 42.433 36 46.5 36 46.5" stroke="#fff" stroke-width="3"/><path d="M26.438 58s4.27.484 6.221 2.067c4.42 3.587-8.815 11.798-3.555 14.023 1.603.678 2.71-1.13 4.444-1.315 4.313-.458 4.68-5.862 8.887-4.82 4.952 1.227 6.155 9.497 2.221 12.708-3.764 3.072-7.948-6.204-11.997-3.506-2.572 1.715-4.617 4.135-3.555 7.011.76 2.06 3.548 1.5 4.444 3.506 1.737 3.89-2.8 8.34-7.11 8.326-6.07-.02-.65-13.772-5.332-11.832-2.51 1.041-1.632 4.33-3.999 5.697C12.456 92.552 13.785 79.37 15 78M160 3.5c6 2 9.79 4.766 13.5 7.5 3.71 2.734 7.571.438 10.5 2l7.5 4c2.929 1.562 10.5 1.5 10.5 1.5M222.5 168.5c-2.505-1.345-6.996.7-6.5 3.5.34 1.923 3.609 1.438 4 3 .39 1.562-1.5 2.5 1 4s7.275-4.526 9.5-1.5c1.623 2.208-2.52 5.147-.5 7 2.324 2.133 3.91-2.7 6.5-4.5 2.041-1.418 2.063-1.488 4.5-1 1.625.325 2.94 2.44 4.5 3 2.096.752 5.314-1.296 5-3.5-.5-3.5-4.334-1.829-6-3.5-1.792-1.798-.315-3.102-2-5-3.283-3.697-10.048-6.234-12-3.5-1.953 2.734-3.048 3.766-5 6.5-1.953 2.734-1.656-3.778-3-4.5zM44.5 212c1.875-1.523-.48-4.618 1.5-6 2.944-2.054 2.33 5.106 3.5 8.5 1.9 5.507 9.32 14.224 3.5 14.5-3.516.167-5.064-2.459-7.5-5-3.322-3.468-9.466-8.291-5.5-11 1.487-1.015 3.103.135 4.5-1z" stroke="#fff" stroke-width="3"/><mask id="ba" fill="#fff"><ellipse cx="187.5" cy="123" rx="2.5" ry="5"/></mask><path d="M187 123c0 1.016-.212 1.787-.416 2.194-.101.202-.144.203-.048.123.114-.097.449-.317.964-.317v6c2.439 0 3.839-1.899 4.451-3.123.702-1.403 1.049-3.132 1.049-4.877h-6zm.5 2c.515 0 .85.22.964.317.096.08.053.079-.048-.123-.204-.407-.416-1.178-.416-2.194h-6c0 1.745.347 3.474 1.049 4.877.612 1.224 2.012 3.123 4.451 3.123v-6zm.5-2c0-1.016.212-1.787.416-2.194.101-.202.144-.203.048-.123-.114.097-.449.317-.964.317v-6c-2.439 0-3.839 1.899-4.451 3.123-.702 1.403-1.049 3.132-1.049 4.877h6zm-.5-2c-.515 0-.85-.22-.964-.317-.096-.08-.053-.079.048.123.204.407.416 1.178.416 2.194h6c0-1.745-.347-3.474-1.049-4.877-.612-1.224-2.012-3.123-4.451-3.123v6z" fill="#fff" mask="url(#ba)"/><path d="M191.5 142c0 2.027-.414 3.787-1.013 4.986-.644 1.288-1.257 1.514-1.487 1.514-.23 0-.843-.226-1.487-1.514-.599-1.199-1.013-2.959-1.013-4.986 0-2.027.414-3.787 1.013-4.986.644-1.288 1.257-1.514 1.487-1.514.23 0 .843.226 1.487 1.514.599 1.199 1.013 2.959 1.013 4.986z" stroke="#fff" stroke-width="3"/><mask id="bb" fill="#fff"><ellipse cx="202.693" cy="157.472" rx="2.5" ry="5" transform="rotate(-14.776 202.693 157.472)"/></mask><path d="M202.209 157.6c.259.982.251 1.782.158 2.227-.046.222-.088.233-.016.131.086-.123.353-.421.852-.552l1.53 5.802c2.358-.622 3.228-2.816 3.507-4.155.321-1.536.216-3.296-.229-4.984l-5.802 1.531zm.994 1.806c.498-.131.877-.004 1.013.06.113.054.071.064-.079-.106-.3-.341-.702-1.033-.961-2.015l-5.802 1.53c.446 1.688 1.222 3.27 2.259 4.448.903 1.027 2.742 2.507 5.1 1.885l-1.53-5.802zm-.027-2.061c-.259-.983-.251-1.783-.158-2.228.046-.221.088-.233.016-.131-.086.123-.353.421-.852.552l-1.53-5.801c-2.358.622-3.228 2.815-3.507 4.155-.321 1.535-.216 3.295.229 4.983l5.802-1.53zm-.994-1.807c-.498.132-.877.005-1.013-.06-.112-.054-.071-.064.079.106.3.342.702 1.033.961 2.016l5.802-1.531c-.446-1.687-1.222-3.27-2.259-4.448-.903-1.027-2.742-2.506-5.1-1.884l1.53 5.801z" fill="#fff" mask="url(#bb)"/><mask id="bc" fill="#fff"><ellipse cx="197.693" cy="148.472" rx="2.5" ry="5" transform="rotate(-14.776 197.693 148.472)"/></mask><path d="M197.209 148.6c.259.982.251 1.782.158 2.227-.046.222-.088.233-.016.131.086-.123.353-.421.852-.552l1.53 5.802c2.358-.622 3.228-2.816 3.507-4.155.321-1.536.216-3.296-.229-4.984l-5.802 1.531zm.994 1.806c.498-.131.877-.004 1.013.06.113.054.071.064-.079-.106-.3-.341-.702-1.033-.961-2.015l-5.802 1.53c.446 1.688 1.222 3.27 2.259 4.448.903 1.027 2.742 2.507 5.1 1.885l-1.53-5.802zm-.027-2.061c-.259-.983-.251-1.783-.158-2.228.046-.221.088-.233.016-.131-.086.123-.353.421-.852.552l-1.53-5.801c-2.358.622-3.228 2.815-3.507 4.155-.321 1.535-.216 3.295.229 4.983l5.802-1.53zm-.994-1.807c-.498.132-.877.005-1.013-.06-.112-.054-.071-.064.079.106.3.342.702 1.033.961 2.016l5.802-1.531c-.446-1.687-1.222-3.27-2.259-4.448-.903-1.027-2.742-2.506-5.1-1.884l1.53 5.801z" fill="#fff" mask="url(#bc)"/><circle cx="137" cy="137" r="136.5" stroke="#fff"/><path d="M224.806 137c0 37.75-9.823 71.903-25.678 96.604-15.859 24.705-37.707 39.896-61.763 39.896-24.057 0-45.905-15.191-61.764-39.896C59.746 208.903 49.923 174.75 49.923 137S59.746 65.097 75.6 40.397C91.46 15.69 113.308.5 137.365.5c24.056 0 45.904 15.19 61.763 39.897 15.855 24.7 25.678 58.853 25.678 96.603z" stroke="#fff"/><path d="M184.107 137c0 37.791-5.283 71.984-13.81 96.711-4.264 12.366-9.33 22.337-14.931 29.207-5.604 6.874-11.69 10.582-18.001 10.582-6.311 0-12.397-3.708-18.001-10.582-5.6-6.87-10.667-16.841-14.931-29.207-8.526-24.727-13.809-58.92-13.809-96.711s5.283-71.984 13.809-96.71c4.264-12.366 9.331-22.338 14.931-29.208C124.968 4.208 131.054.5 137.365.5c6.311 0 12.397 3.708 18.001 10.582 5.601 6.87 10.667 16.841 14.931 29.207 8.527 24.727 13.81 58.92 13.81 96.711zM137.866 0v274M.361 136.5H272" stroke="#fff"/><path d="M32 223.046C57.13 212.63 95.002 206 137.365 206c42.363 0 80.235 6.63 105.365 17.046M240.5 49.5c-25.13 10.415-60.772 16.546-103.135 16.546C95.002 66.046 57.13 59.416 32 49" stroke="#fff"/></svg><svg viewBox="0 0 24 28" id="globe"><path d="M12 2c6.625 0 12 5.375 12 12s-5.375 12-12 12S0 20.625 0 14 5.375 2 12 2zm4.281 8.141c-.125.094-.203.266-.359.297.078-.016.156-.297.203-.359.094-.109.219-.172.344-.234.266-.109.531-.141.812-.187.266-.063.594-.063.797.172-.047-.047.328-.375.375-.391.141-.078.375-.047.469-.187.031-.047.031-.344.031-.344-.266.031-.359-.219-.375-.438 0 .016-.031.063-.094.125.016-.234-.281-.063-.391-.094-.359-.094-.313-.344-.422-.609-.063-.141-.234-.187-.297-.328-.063-.094-.094-.297-.234-.313-.094-.016-.266.328-.297.313-.141-.078-.203.031-.313.094-.094.063-.172.031-.266.078.281-.094-.125-.25-.266-.219.219-.063.109-.297-.016-.406h.078c-.031-.141-.469-.266-.609-.359s-.891-.25-1.047-.156c-.187.109.047.422.047.578.016.187-.187.234-.187.391 0 .266.5.219.375.578-.078.219-.375.266-.5.438-.125.156.016.438.141.547.125.094-.219.25-.266.281-.266.125-.469-.266-.531-.5-.047-.172-.063-.375-.25-.469-.094-.031-.391-.078-.453.016-.094-.234-.422-.328-.641-.406-.313-.109-.578-.109-.906-.063.109-.016-.031-.5-.297-.422.078-.156.047-.328.078-.484a.887.887 0 01.187-.359c.031-.063.375-.422.266-.438.266.031.562.047.781-.172.141-.141.203-.375.344-.531.203-.234.453.063.672.078.313.016.297-.328.125-.484.203.016.031-.359-.078-.406-.141-.047-.672.094-.391.203-.063-.031-.438.75-.656.359-.063-.078-.094-.406-.234-.422-.125 0-.203.141-.25.234.078-.203-.438-.344-.547-.359.234-.156.047-.328-.125-.422-.125-.078-.516-.141-.625-.016-.297.359.313.406.469.5.047.031.234.141.125.219-.094.047-.375.125-.406.187-.094.141.109.297-.031.438-.141-.141-.141-.375-.25-.531.141.172-.562.078-.547.078-.234 0-.609.156-.781-.078-.031-.063-.031-.422.063-.344-.141-.109-.234-.219-.328-.281a9.5 9.5 0 00-1.469.641.26.26 0 00.187-.016c.125-.047.234-.125.359-.187.156-.063.484-.25.656-.109.016-.031.063-.063.078-.078.109.125.219.25.313.391-.125-.063-.328-.031-.469-.016-.109.031-.297.063-.344.187.047.078.109.203.078.281-.203-.141-.359-.375-.641-.406-.125 0-.25 0-.344.016a10.15 10.15 0 00-3.672 3.469.442.442 0 00.187.125c.156.047 0 .5.297.266.094.078.109.187.047.297.016-.016.641.391.688.422.109.094.281.203.328.328.031.109-.063.234-.156.281-.016-.031-.25-.266-.281-.203-.047.078 0 .5.172.484-.25.016-.141.984-.203 1.172 0 .016.031.016.031.016-.047.187.109.922.422.844-.203.047.359.766.438.812.203.141.438.234.578.438.156.219.156.547.375.719-.063.187.328.406.313.672-.031.016-.047.016-.078.031.078.219.375.219.484.422.063.125 0 .422.203.359.031-.344-.203-.688-.375-.969-.094-.156-.187-.297-.266-.453-.078-.141-.094-.313-.156-.469.063.016.406.141.375.187-.125.313.5.859.672 1.062.047.047.406.516.219.516.203 0 .484.313.578.469.141.234.109.531.203.781.094.313.531.453.781.594.219.109.406.266.625.344.328.125.406.016.688-.031.406-.063.453.391.781.562.203.109.641.266.859.172-.094.031.328.672.359.719.141.187.406.281.562.469a.244.244 0 00.109-.141c-.063.172.234.5.391.469.172-.031.219-.375.219-.5-.313.156-.594.031-.766-.281-.031-.078-.281-.516-.063-.516.297 0 .094-.234.063-.453s-.25-.359-.359-.547c-.094.187-.406.141-.5-.016 0 .047-.047.125-.047.187-.078 0-.156.016-.234-.016.031-.187.047-.422.094-.625.078-.281.594-.828-.078-.797-.234.016-.328.109-.406.313-.078.187-.047.359-.266.453-.141.063-.609.031-.75-.047-.297-.172-.5-.719-.5-1.031-.016-.422.203-.797 0-1.188.094-.078.187-.234.297-.313.094-.063.203.047.25-.141-.047-.031-.109-.094-.125-.094.234.109.672-.156.875 0 .125.094.266.125.344-.031.016-.047-.109-.234-.047-.359.047.266.219.313.453.141.094.094.344.063.516.156.172.109.203.281.406.047.125.187.141.187.187.375.047.172.141.609.297.688.328.203.25-.344.219-.531-.016-.016-.016-.531-.031-.531-.5-.109-.313-.5-.031-.766.047-.031.406-.156.562-.281.141-.125.313-.344.234-.547.078 0 .141-.063.172-.141-.047-.016-.234-.172-.266-.156.109-.063.094-.156.031-.25.156-.094.078-.266.234-.328.172.234.516-.031.344-.219.156-.219.516-.109.609-.313.234.063.063-.234.187-.406.109-.141.297-.141.438-.219 0 .016.391-.219.266-.234.266.031.797-.25.391-.484.063-.141-.141-.203-.281-.234.109-.031.25.031.344-.031.203-.141.063-.203-.109-.25-.219-.063-.5.078-.672.187zm-2.547 13.703a9.912 9.912 0 005.484-2.953c-.094-.094-.266-.063-.391-.125-.125-.047-.219-.094-.375-.125.031-.313-.313-.422-.531-.578-.203-.156-.328-.328-.625-.266-.031.016-.344.125-.281.187-.203-.172-.297-.266-.562-.344-.25-.078-.422-.391-.672-.109-.125.125-.063.313-.125.438-.203-.172.187-.375.031-.562-.187-.219-.516.141-.672.234-.094.078-.203.109-.266.203-.078.109-.109.25-.172.359-.047-.125-.313-.094-.328-.187.063.375.063.766.141 1.141.047.219 0 .578-.187.75s-.422.359-.453.625c-.031.187.016.359.187.406.016.234-.25.406-.234.656 0 .016.016.172.031.25z"/></svg><svg fill="none" viewBox="0 0 42 20" id="icon-link"><path d="M12 6.662l13.609.042M13.844 10.335l13.608.041M15.832 14.039l13.609.04M10.525 1.793L1 18.224M1 18.224h30.482M40.838 1.607H10.633M31.645 18.154l9.192-16.547" stroke="#fff" stroke-width="1.5" stroke-miterlimit="10" stroke-linecap="round"/></svg><svg fill="none" viewBox="0 0 207 26" id="logo-dev"><path d="M63.534 17.675h-.743l-2.234-7.205h1.09l1.546 4.976 1.486-4.976h.687l1.486 4.976 1.541-4.976h1.09l-2.23 7.205h-.748L65.02 12.87l-1.486 4.804zM79.43 16.647v1.028h-4.858V10.47h4.747v1.027h-3.664v1.944h3.374v1.033h-3.374v2.173h3.776zM89.15 13.843c.19.108.362.246.514.414.13.145.248.327.352.547.108.22.162.49.162.81 0 .275-.057.538-.173.787a1.995 1.995 0 01-.48.654 2.387 2.387 0 01-1.63.62h-2.917V10.47h2.86c.283 0 .55.054.799.162.253.104.473.247.659.43.186.182.331.395.435.637.109.238.162.495.162.77 0 .228-.04.429-.122.604a2.026 2.026 0 01-.252.424c-.108.138-.23.253-.368.346zm-3.088-.402h1.776c.29 0 .534-.097.732-.29a.924.924 0 00-.006-1.363.997.997 0 00-.726-.29h-1.776v1.943zm1.832 3.206c.167 0 .326-.03.475-.09a1.24 1.24 0 00.38-.245c.108-.104.191-.225.25-.363.064-.138.096-.287.096-.447 0-.16-.032-.309-.095-.447a1.054 1.054 0 00-.251-.357 1.114 1.114 0 00-.38-.246 1.2 1.2 0 00-.475-.095h-1.832v2.29h1.832zM102.48 17.675h-1.145l2.748-7.205h.91l2.748 7.205h-1.145l-.631-1.66h-2.86l-.625 1.66zm3.088-2.687l-1.033-2.86-1.027 2.86h2.06zM117.232 16.647v1.028h-4.519V10.47h1.084v6.177h3.435zM121.182 10.47h5.434v1.027h-2.178v6.178h-1.083v-6.178h-2.173V10.47zM136.621 16.647v1.028h-4.859V10.47h4.747v1.027h-3.664v1.944h3.374v1.033h-3.374v2.173h3.776zM144.509 14.815h-1.257v2.86h-1.083V10.47h2.859c.298 0 .579.058.844.173.268.112.499.266.692.464a2.199 2.199 0 01.637 1.536c0 .42-.084.763-.251 1.027-.168.26-.352.467-.553.62-.235.183-.501.32-.799.413l1.77 2.972h-1.2l-1.659-2.86zm-1.257-1.028h1.776a.95.95 0 00.408-.089 1.2 1.2 0 00.581-.609c.063-.138.095-.286.095-.447 0-.16-.032-.309-.095-.446a1.154 1.154 0 00-.24-.358 1.07 1.07 0 00-.341-.245.902.902 0 00-.408-.095h-1.776v2.29zM158.177 10.47v7.205h-.916l-3.49-5.15v5.15h-1.084V10.47h.91l3.491 5.144V10.47h1.089zM164.295 17.675h-1.145l2.747-7.205h.911l2.748 7.205h-1.145l-.631-1.66h-2.86l-.625 1.66zm3.088-2.687l-1.033-2.86-1.028 2.86h2.061zM173.383 10.47h5.434v1.027h-2.178v6.178h-1.083v-6.178h-2.173V10.47zM185.046 17.675h-1.083V10.47h1.083v7.205zM190.136 10.47h1.145l2.005 5.546 2-5.546h1.145l-2.631 7.205h-1.028l-2.636-7.205zM206.385 16.647v1.028h-4.859V10.47h4.747v1.027h-3.664v1.944h3.374v1.033h-3.374v2.173h3.776z" fill="#000"/><path fill-rule="evenodd" clip-rule="evenodd" d="M14.881 25.185h5.093l2.878-2.997 2.878 2.997h5.072l-7.96-8.29-7.96 8.29zM0 7.322L8.578 24.57l5.193-5.146L7.563 9.351 0 7.322zm45.787-.002l-8.578 17.247-5.193-5.145 6.208-10.074 7.563-2.028zM22.845.656L14.287 12.68l2.283 3.942 6.275-6.335 6.274 6.335 2.284-3.942L22.845.656z" fill="#000"/></svg><svg fill="none" viewBox="0 0 1721 543" id="mask"><path d="M1718.78 271.461V0L1582 271.461 1718.86 543V271.461h-.08z" fill="#fff"/><path d="M1650.53 0h-268.92v543h268.92l-134.46-271.539L1650.53 0zM1321.25 0l-271.24 543h271.24V0zM983.937 0h268.923L983.937 543V0zM923.496 0L654.573 543h268.923V0zM598.632 543L869.003 0h-869v543h598.629z" fill="#fff"/></svg></svg>