<svg width="54" height="72" viewBox="0 0 54 72" fill="none" xmlns="http://www.w3.org/2000/svg">
<path d="M37.875 34.3475L39.7989 35.4164" stroke="black" stroke-miterlimit="10" stroke-linecap="round"/>
<path d="M43.6426 37.6608L52.7276 42.898" stroke="black" stroke-miterlimit="10" stroke-linecap="round"/>
<path d="M52.7278 42.8979L44.0703 47.9214" stroke="black" stroke-miterlimit="10" stroke-linecap="round"/>
<path d="M44.0703 47.9215L52.7278 52.8382" stroke="black" stroke-miterlimit="10" stroke-linecap="round"/>
<path d="M52.7278 52.8379L44.0703 57.8614" stroke="black" stroke-miterlimit="10" stroke-linecap="round"/>
<path d="M44.0703 57.8617V61.175" stroke="black" stroke-miterlimit="10" stroke-linecap="round"/>
<path d="M44.0694 61.175L26.8613 71.1151" stroke="black" stroke-miterlimit="10" stroke-linecap="round"/>
<path d="M26.8677 71.1151L9.55273 61.175" stroke="black" stroke-miterlimit="10" stroke-linecap="round"/>
<path d="M9.55273 61.175V57.8617" stroke="black" stroke-miterlimit="10" stroke-linecap="round"/>
<path d="M1 52.8379L9.55062 57.8614" stroke="black" stroke-miterlimit="10" stroke-linecap="round"/>
<path d="M1 52.8382L9.55062 47.9215" stroke="black" stroke-miterlimit="10" stroke-linecap="round"/>
<path d="M9.55062 47.9214L1 42.8979" stroke="black" stroke-miterlimit="10" stroke-linecap="round"/>
<path d="M1 42.8981L12.864 36.0576" stroke="black" stroke-miterlimit="10" stroke-linecap="round"/>
<path d="M9.55273 57.8617L18.2102 62.7783" stroke="black" stroke-miterlimit="10" stroke-linecap="round"/>
<path d="M18.1992 62.7783L26.8567 57.8617" stroke="black" stroke-miterlimit="10" stroke-linecap="round"/>
<path d="M44.0667 47.9216L34.4473 42.3638" stroke="black" stroke-miterlimit="10" stroke-linecap="round"/>
<path d="M31.3525 40.5465L29.2148 39.2639" stroke="black" stroke-miterlimit="10" stroke-linecap="round"/>
<path d="M21.4167 41.0812L9.55273 47.9216" stroke="black" stroke-miterlimit="10" stroke-linecap="round"/>
<path d="M9.55273 47.9215L26.8677 57.8617" stroke="black" stroke-miterlimit="10" stroke-linecap="round"/>
<path d="M35.5176 62.7783L44.0682 57.8617" stroke="black" stroke-miterlimit="10" stroke-linecap="round"/>
<path d="M26.8613 57.8617V71.1151" stroke="black" stroke-miterlimit="10" stroke-linecap="round"/>
<path d="M21.0918 54.5484L25.6878 51.8763" stroke="black" stroke-miterlimit="10" stroke-linecap="round"/>
<path d="M26.8613 49.7388V40.6538" stroke="black" stroke-miterlimit="10" stroke-linecap="round"/>
<path d="M28.1445 51.9832L32.6336 54.5483" stroke="black" stroke-miterlimit="10" stroke-linecap="round"/>
<path d="M26.8613 57.8617L35.5188 62.7783" stroke="black" stroke-miterlimit="10" stroke-linecap="round"/>
<path d="M26.8613 57.8617L44.0694 47.9215" stroke="black" stroke-miterlimit="10" stroke-linecap="round"/>
<path d="M23.8691 27.0796V42.3639" stroke="black" stroke-miterlimit="10" stroke-linecap="round"/>
<path d="M23.8691 42.3635L29.9615 38.8363" stroke="black" stroke-miterlimit="10" stroke-linecap="round"/>
<path d="M23.8707 42.3638L19.916 40.1193" stroke="black" stroke-miterlimit="10" stroke-linecap="round"/>
<path d="M24.4065 24.8351L10.5117 16.8188" stroke="black" stroke-miterlimit="10" stroke-linecap="round"/>
<path d="M39.3672 17.9943V22.9109" stroke="black" stroke-miterlimit="10" stroke-linecap="round"/>
<path d="M32.2009 9.0162L18.1992 1" stroke="black" stroke-miterlimit="10" stroke-linecap="round"/>
<path d="M14.4652 37.0198L11.0449 34.989" stroke="black" stroke-miterlimit="10" stroke-linecap="round"/>
<path d="M29.6413 33.7062L29 34.1337" stroke="black" stroke-miterlimit="10" stroke-linecap="round"/>
<path d="M29 34.1337V25.9037" stroke="black" stroke-miterlimit="10" stroke-linecap="round"/>
<path d="M29 25.9037L31.5652 24.4073" stroke="black" stroke-miterlimit="10" stroke-linecap="round"/>
<path d="M31.5625 24.4072L34.2346 22.9109" stroke="black" stroke-miterlimit="10" stroke-linecap="round"/>
<path d="M34.2344 25.583V22.9109" stroke="black" stroke-miterlimit="10" stroke-linecap="round"/>
<path d="M29.8551 32.6372L29 33.1716" stroke="black" stroke-miterlimit="10" stroke-linecap="round"/>
<path d="M33.3809 26.3315V23.3387" stroke="black" stroke-miterlimit="10" stroke-linecap="round"/>
<path d="M24.4053 27.5071L11.0449 19.7047" stroke="black" stroke-miterlimit="10" stroke-linecap="round"/>
<path d="M32.0977 11.7952L39.3657 18.2081" stroke="black" stroke-miterlimit="10" stroke-linecap="round"/>
<path d="M24.4043 24.835V27.507" stroke="black" stroke-miterlimit="10" stroke-linecap="round"/>
<path d="M39.9043 15.8567V18.5288" stroke="black" stroke-miterlimit="10" stroke-linecap="round"/>
<path d="M24.4043 24.8349L32.2067 9.01624" stroke="black" stroke-miterlimit="10" stroke-linecap="round"/>
<path d="M32.207 9.01624L39.9026 15.8567" stroke="black" stroke-miterlimit="10" stroke-linecap="round"/>
<path d="M24.4043 27.5067L32.2067 11.6881" stroke="black" stroke-miterlimit="10" stroke-linecap="round"/>
<path d="M32.207 11.6881L39.9026 18.5286" stroke="black" stroke-miterlimit="10" stroke-linecap="round"/>
<path d="M39.9016 18.5289L39.3672 18.2083" stroke="black" stroke-miterlimit="10" stroke-linecap="round"/>
<path d="M21.2008 17.4599L18.4219 15.7498" stroke="black" stroke-miterlimit="10" stroke-linecap="round"/>
<path d="M21.1992 17.4601L24.0851 11.5815" stroke="black" stroke-miterlimit="10" stroke-linecap="round"/>
<path d="M21.1992 8.69568V17.46" stroke="black" stroke-miterlimit="10" stroke-linecap="round"/>
<path d="M18.4219 6.98535V15.7497" stroke="black" stroke-miterlimit="10" stroke-linecap="round"/>
<path d="M24.0801 6.98535V11.5813" stroke="black" stroke-miterlimit="10" stroke-linecap="round"/>
<path d="M21.1992 8.69551L24.0851 6.98535" stroke="black" stroke-miterlimit="10" stroke-linecap="round"/>
<path d="M21.2008 8.69551L18.4219 6.98535" stroke="black" stroke-miterlimit="10" stroke-linecap="round"/>
<path d="M18.4219 6.98569L21.2008 5.38245" stroke="black" stroke-miterlimit="10" stroke-linecap="round"/>
<path d="M24.0851 6.98569L21.1992 5.38245" stroke="black" stroke-miterlimit="10" stroke-linecap="round"/>
<path d="M14.459 37.0193V25.476" stroke="black" stroke-miterlimit="10" stroke-linecap="round"/>
<path d="M14.459 25.476L19.91 28.6824" stroke="black" stroke-miterlimit="10" stroke-linecap="round"/>
<path d="M19.916 28.6826V38.8365" stroke="black" stroke-miterlimit="10" stroke-linecap="round"/>
<path d="M14.459 37.0194L15.5278 36.3781" stroke="black" stroke-miterlimit="10" stroke-linecap="round"/>
<path d="M15.5293 36.378V26.1173" stroke="black" stroke-miterlimit="10" stroke-linecap="round"/>
<path d="M15.5293 36.3781L19.9115 38.8363" stroke="black" stroke-miterlimit="10" stroke-linecap="round"/>
<path d="M21.1992 7.62669L22.268 6.98535" stroke="black" stroke-miterlimit="10" stroke-linecap="round"/>
<path d="M21.1977 7.62669L20.1289 6.98535" stroke="black" stroke-miterlimit="10" stroke-linecap="round"/>
<path d="M20.1289 6.98546L21.1977 6.45105" stroke="black" stroke-miterlimit="10" stroke-linecap="round"/>
<path d="M22.268 6.98546L21.1992 6.45105" stroke="black" stroke-miterlimit="10" stroke-linecap="round"/>
<path d="M21.1992 6.45105V7.6268" stroke="black" stroke-miterlimit="10" stroke-linecap="round"/>
<path d="M11.0449 19.7047V34.9889" stroke="black" stroke-miterlimit="10" stroke-linecap="round"/>
<path d="M10.5117 16.8188V19.3841" stroke="black" stroke-miterlimit="10" stroke-linecap="round"/>
<path d="M10.5117 16.8186L18.2073 1" stroke="black" stroke-miterlimit="10" stroke-linecap="round"/>
<path d="M19.916 38.8363V40.1189" stroke="black" stroke-miterlimit="10" stroke-linecap="round"/>
<path d="M11.0461 19.7045L10.5117 19.3839" stroke="black" stroke-miterlimit="10" stroke-linecap="round"/>
<path d="M38.834 24.7282L40.651 24.0869L42.5749 24.1938L44.285 25.0489" stroke="black" stroke-miterlimit="10" stroke-linecap="round"/>
<path d="M31.3535 37.6608L31.6742 39.4778L32.6361 40.9741L34.0256 42.1499" stroke="black" stroke-miterlimit="10" stroke-linecap="round"/>
<path d="M31.3535 37.6609L31.8879 33.8132L33.3843 30.1791L35.7357 27.0795L38.8353 24.7281" stroke="black" stroke-miterlimit="10" stroke-linecap="round"/>
<path d="M38.834 42.0428L41.9336 39.6914L44.285 36.5918L45.7814 32.9577L46.3158 29.11" stroke="black" stroke-miterlimit="10" stroke-linecap="round"/>
<path d="M38.834 27.614L40.5441 27.0796L42.2542 27.614L43.4299 28.7898L43.8575 30.4998" stroke="black" stroke-miterlimit="10" stroke-linecap="round"/>
<path d="M33.8105 36.2711L34.2381 37.9812L35.5207 39.157L37.2308 39.6914L38.834 39.157" stroke="black" stroke-miterlimit="10" stroke-linecap="round"/>
<path d="M33.8105 36.2713L34.1312 33.7061L35.2 31.2478L36.8033 29.217L38.834 27.6138" stroke="black" stroke-miterlimit="10" stroke-linecap="round"/>
<path d="M38.834 39.1574L40.9716 37.5542L42.5749 35.5234L43.5368 33.0651L43.8575 30.4999" stroke="black" stroke-miterlimit="10" stroke-linecap="round"/>
<path d="M36.8066 23.5524L38.4099 23.0179H40.12L41.6164 23.4455" stroke="black" stroke-miterlimit="10" stroke-linecap="round"/>
<path d="M29.3262 36.5918L29.6468 38.3019L30.5019 39.7983L31.8914 40.8671" stroke="black" stroke-miterlimit="10" stroke-linecap="round"/>
<path d="M29.3262 36.592L29.8606 32.6373L31.3569 29.1102L33.7084 26.0105L36.808 23.5522" stroke="black" stroke-miterlimit="10" stroke-linecap="round"/>
<path d="M41.9336 27.4L42.8955 28.5757L43.3231 30.1789" stroke="black" stroke-miterlimit="10" stroke-linecap="round"/>
<path d="M35.2051 39.0501L36.8083 39.2639L38.3047 38.8363" stroke="black" stroke-miterlimit="10" stroke-linecap="round"/>
<path d="M38.2988 38.8364L40.3296 37.2332L41.9328 35.2025L43.0017 32.7442L43.3223 30.179" stroke="black" stroke-miterlimit="10" stroke-linecap="round"/>
<path d="M34.0283 42.15L31.8906 40.8674" stroke="black" stroke-miterlimit="10" stroke-linecap="round"/>
<path d="M43.7509 24.7282L41.6133 23.4456" stroke="black" stroke-miterlimit="10" stroke-linecap="round"/>
<path d="M33.9174 42.043L27.6113 52.945" stroke="black" stroke-miterlimit="10" stroke-linecap="round"/>
<path d="M31.9969 40.8674L25.584 51.8763" stroke="black" stroke-miterlimit="10" stroke-linecap="round"/>
<path d="M27.6148 52.9452L25.584 51.8763" stroke="black" stroke-miterlimit="10" stroke-linecap="round"/>
<path d="M41.3984 27.2932L42.1466 28.362L42.4673 29.6446" stroke="black" stroke-miterlimit="10" stroke-linecap="round"/>
<path d="M34.877 38.7296L36.1595 38.8364L37.4421 38.4089" stroke="black" stroke-miterlimit="10" stroke-linecap="round"/>
<path d="M37.4395 38.4089L39.4702 36.8057L41.0735 34.668L42.1423 32.2097L42.4629 29.6445" stroke="black" stroke-miterlimit="10" stroke-linecap="round"/>
<path d="M41.0801 27.1863L41.7214 28.1482L41.8283 29.3239" stroke="black" stroke-miterlimit="10" stroke-linecap="round"/>
<path d="M34.5586 38.4091H35.7343L36.8031 37.9816" stroke="black" stroke-miterlimit="10" stroke-linecap="round"/>
<path d="M36.8066 37.9815L38.9443 36.4851L40.5475 34.3475L41.5095 31.8891L41.8301 29.324" stroke="black" stroke-miterlimit="10" stroke-linecap="round"/>
<path d="M44.2891 25.0486L45.3579 26.1174L46.1061 27.5069L46.3198 29.1101" stroke="black" stroke-miterlimit="10" stroke-linecap="round"/>
<path d="M34.0254 42.1499L35.6286 42.6843L37.3388 42.5774L38.8351 42.043" stroke="black" stroke-miterlimit="10" stroke-linecap="round"/>
<path d="M33.8105 36.5918L39.3684 33.4922" stroke="black" stroke-miterlimit="10" stroke-linecap="round"/>
<path d="M39.3672 27.2932V33.4924" stroke="black" stroke-miterlimit="10" stroke-linecap="round"/>
</svg>
