<svg width="126" height="185" viewBox="0 0 126 185" fill="none" xmlns="http://www.w3.org/2000/svg">
<path d="M42.1392 92.7562L45.973 95.0564" stroke="white" stroke-width="1.5" stroke-miterlimit="10" stroke-linecap="round"/>
<path d="M62.575 104.513L62.8303 104.768" stroke="white" stroke-width="1.5" stroke-miterlimit="10" stroke-linecap="round"/>
<path d="M62.8423 104.767L79.711 94.7994" stroke="white" stroke-width="1.5" stroke-miterlimit="10" stroke-linecap="round"/>
<path d="M95.0469 99.4004L124.695 116.525" stroke="white" stroke-width="1.5" stroke-miterlimit="10" stroke-linecap="round"/>
<path d="M124.696 116.525L103.993 128.537" stroke="white" stroke-width="1.5" stroke-miterlimit="10" stroke-linecap="round"/>
<path d="M103.993 128.538L124.696 140.295" stroke="white" stroke-width="1.5" stroke-miterlimit="10" stroke-linecap="round"/>
<path d="M124.696 140.295L103.993 152.308" stroke="white" stroke-width="1.5" stroke-miterlimit="10" stroke-linecap="round"/>
<path d="M103.993 152.307V160.23" stroke="white" stroke-width="1.5" stroke-miterlimit="10" stroke-linecap="round"/>
<path d="M103.992 160.23L62.8423 184" stroke="white" stroke-width="1.5" stroke-miterlimit="10" stroke-linecap="round"/>
<path d="M62.853 184L21.448 160.23" stroke="white" stroke-width="1.5" stroke-miterlimit="10" stroke-linecap="round"/>
<path d="M21.448 160.23V152.307" stroke="white" stroke-width="1.5" stroke-miterlimit="10" stroke-linecap="round"/>
<path d="M1 140.295L21.4469 152.308" stroke="white" stroke-width="1.5" stroke-miterlimit="10" stroke-linecap="round"/>
<path d="M1 140.295L21.4469 128.538" stroke="white" stroke-width="1.5" stroke-miterlimit="10" stroke-linecap="round"/>
<path d="M21.4469 128.537L1 116.525" stroke="white" stroke-width="1.5" stroke-miterlimit="10" stroke-linecap="round"/>
<path d="M1 116.525L24.0028 103.234" stroke="white" stroke-width="1.5" stroke-miterlimit="10" stroke-linecap="round"/>
<path d="M36.2637 96.0788L42.1422 92.7562" stroke="white" stroke-width="1.5" stroke-miterlimit="10" stroke-linecap="round"/>
<path d="M21.448 152.307L42.1505 164.32" stroke="white" stroke-width="1.5" stroke-miterlimit="10" stroke-linecap="round"/>
<path d="M42.1392 164.32L62.8417 152.307" stroke="white" stroke-width="1.5" stroke-miterlimit="10" stroke-linecap="round"/>
<path d="M104.003 128.537L93.0125 122.148" stroke="white" stroke-width="1.5" stroke-miterlimit="10" stroke-linecap="round"/>
<path d="M79.711 114.481L62.8423 104.768" stroke="white" stroke-width="1.5" stroke-miterlimit="10" stroke-linecap="round"/>
<path d="M62.8303 104.768H62.575" stroke="white" stroke-width="1.5" stroke-miterlimit="10" stroke-linecap="round"/>
<path d="M54.4158 109.369L48.2817 112.947" stroke="white" stroke-width="1.5" stroke-miterlimit="10" stroke-linecap="round"/>
<path d="M35.7608 120.359L21.448 128.538" stroke="white" stroke-width="1.5" stroke-miterlimit="10" stroke-linecap="round"/>
<path d="M21.448 128.538L62.853 152.307" stroke="white" stroke-width="1.5" stroke-miterlimit="10" stroke-linecap="round"/>
<path d="M83.5444 164.32L103.991 152.307" stroke="white" stroke-width="1.5" stroke-miterlimit="10" stroke-linecap="round"/>
<path d="M62.8423 152.307V184" stroke="white" stroke-width="1.5" stroke-miterlimit="10" stroke-linecap="round"/>
<path d="M49.0405 144.384L60.7975 137.483" stroke="white" stroke-width="1.5" stroke-miterlimit="10" stroke-linecap="round"/>
<path d="M62.8423 122.148V104.768" stroke="white" stroke-width="1.5" stroke-miterlimit="10" stroke-linecap="round"/>
<path d="M65.6523 138.25L76.6426 144.384" stroke="white" stroke-width="1.5" stroke-miterlimit="10" stroke-linecap="round"/>
<path d="M62.8423 152.307L83.5448 164.32" stroke="white" stroke-width="1.5" stroke-miterlimit="10" stroke-linecap="round"/>
<path d="M62.8423 152.307L103.992 128.538" stroke="white" stroke-width="1.5" stroke-miterlimit="10" stroke-linecap="round"/>
<path d="M16.3374 70.009L16.8486 64.1305L18.8933 58.5076L22.2159 53.6514" stroke="white" stroke-width="1.5" stroke-miterlimit="10" stroke-linecap="round"/>
<path d="M91.219 113.202L90.1967 119.592L87.8964 125.726L83.807 130.838L78.6953 134.671" stroke="white" stroke-width="1.5" stroke-miterlimit="10" stroke-linecap="round"/>
<path d="M16.3374 70.0079L17.3597 83.0428L20.6824 95.5666L26.3053 107.323L33.7173 118.058L42.9184 127.259L53.653 134.671" stroke="white" stroke-width="1.5" stroke-miterlimit="10" stroke-linecap="round"/>
<path d="M53.6345 48.2837L58.7463 51.3508L63.3468 54.9289" stroke="white" stroke-width="1.5" stroke-miterlimit="10" stroke-linecap="round"/>
<path d="M34.4668 44.9606L40.3453 42.9159L46.4794 42.149L52.6134 43.1715L58.4919 45.4718" stroke="white" stroke-width="1.5" stroke-miterlimit="10" stroke-linecap="round"/>
<path d="M95.814 110.391L95.0473 117.036L92.4914 122.915L88.6576 128.027L83.2903 132.116" stroke="white" stroke-width="1.5" stroke-miterlimit="10" stroke-linecap="round"/>
<path d="M58.5027 45.4727L61.8253 47.5173L64.8923 49.8175" stroke="white" stroke-width="1.5" stroke-miterlimit="10" stroke-linecap="round"/>
<path d="M26.2981 75.6308L27.0649 70.5191L29.1095 65.9186" stroke="white" stroke-width="1.5" stroke-miterlimit="10" stroke-linecap="round"/>
<path d="M80.9888 107.324L80.222 112.691L77.9217 117.547L74.3435 121.637" stroke="white" stroke-width="1.5" stroke-miterlimit="10" stroke-linecap="round"/>
<path d="M26.2981 75.631L27.576 87.1324L31.1542 98.1226L36.7771 107.835L44.4447 116.525L53.6458 123.17" stroke="white" stroke-width="1.5" stroke-miterlimit="10" stroke-linecap="round"/>
<path d="M53.6345 60.0403L57.2127 62.0851L60.5354 64.641" stroke="white" stroke-width="1.5" stroke-miterlimit="10" stroke-linecap="round"/>
<path d="M74.349 121.637L68.9817 122.915L63.6144 122.404L58.5027 120.359" stroke="white" stroke-width="1.5" stroke-miterlimit="10" stroke-linecap="round"/>
<path d="M31.1533 69.2411L31.4089 79.4645L33.4536 89.4323L37.543 98.6335L43.1659 107.323L50.0667 114.48L58.5011 120.358" stroke="white" stroke-width="1.5" stroke-miterlimit="10" stroke-linecap="round"/>
<path d="M78.6953 134.671L83.2959 132.115" stroke="white" stroke-width="1.5" stroke-miterlimit="10" stroke-linecap="round"/>
<path d="M60.2805 111.669L76.1269 59.7849" stroke="white" stroke-width="1.5" stroke-miterlimit="10" stroke-linecap="round"/>
<path d="M20.9324 43.1717L30.3891 37.8044" stroke="white" stroke-width="1.5" stroke-miterlimit="10" stroke-linecap="round"/>
<path d="M30.3945 37.8044L34.4839 44.9608" stroke="white" stroke-width="1.5" stroke-miterlimit="10" stroke-linecap="round"/>
<path d="M92.4979 6.62293L82.7856 1" stroke="white" stroke-width="1.5" stroke-miterlimit="10" stroke-linecap="round"/>
<path d="M56.9729 113.713L88.9212 8.66724" stroke="white" stroke-width="1.5" stroke-miterlimit="10" stroke-linecap="round"/>
<path d="M56.9676 113.713L31.1533 69.2411" stroke="white" stroke-width="1.5" stroke-miterlimit="10" stroke-linecap="round"/>
<path d="M17.3516 45.2169L26.8083 39.8496" stroke="white" stroke-width="1.5" stroke-miterlimit="10" stroke-linecap="round"/>
<path d="M26.7957 39.8496L53.6322 86.6219" stroke="white" stroke-width="1.5" stroke-miterlimit="10" stroke-linecap="round"/>
<path d="M88.9052 8.66712L79.1929 3.04419" stroke="white" stroke-width="1.5" stroke-miterlimit="10" stroke-linecap="round"/>
<path d="M79.2122 3.04419L64.8994 49.8165" stroke="white" stroke-width="1.5" stroke-miterlimit="10" stroke-linecap="round"/>
<path d="M88.9163 8.66771L92.4945 6.62305" stroke="white" stroke-width="1.5" stroke-miterlimit="10" stroke-linecap="round"/>
<path d="M56.9729 113.714L60.2955 111.67" stroke="white" stroke-width="1.5" stroke-miterlimit="10" stroke-linecap="round"/>
<path d="M76.1404 59.7849L83.0412 68.4749L88.6641 78.1872L92.4979 88.6661L95.0538 99.4008L95.8205 110.391" stroke="white" stroke-width="1.5" stroke-miterlimit="10" stroke-linecap="round"/>
<path d="M74.3435 65.9186L81.4999 76.3976L86.8672 88.1545L90.1899 100.423L91.2122 113.202" stroke="white" stroke-width="1.5" stroke-miterlimit="10" stroke-linecap="round"/>
<path d="M71.2842 76.1425L76.6515 85.8547L79.9741 96.3337L80.9965 107.324" stroke="white" stroke-width="1.5" stroke-miterlimit="10" stroke-linecap="round"/>
<path d="M34.9834 45.7278L41.3731 44.9611L47.7627 45.7278L53.6412 48.2837" stroke="white" stroke-width="1.5" stroke-miterlimit="10" stroke-linecap="round"/>
<path d="M41.8958 57.7407H48.0298L53.6527 60.0409" stroke="white" stroke-width="1.5" stroke-miterlimit="10" stroke-linecap="round"/>
<path d="M31.1533 73.0752L32.1757 84.3209L35.7539 95.3112L41.3768 105.279L49.0444 113.713L58.5011 120.359" stroke="white" stroke-width="1.5" stroke-miterlimit="10" stroke-linecap="round"/>
<path d="M22.2077 53.6506L17.3516 45.2163" stroke="white" stroke-width="1.5" stroke-miterlimit="10" stroke-linecap="round"/>
<path d="M34.4668 44.9611L55.4249 81.2544" stroke="white" stroke-width="1.5" stroke-miterlimit="10" stroke-linecap="round"/>
<path d="M64.8867 49.8163L60.5417 64.6404" stroke="white" stroke-width="1.5" stroke-miterlimit="10" stroke-linecap="round"/>
<path d="M76.1404 59.785L92.4979 6.62305" stroke="white" stroke-width="1.5" stroke-miterlimit="10" stroke-linecap="round"/>
<path d="M31.1523 69.2422L22.2068 53.6514" stroke="white" stroke-width="1.5" stroke-miterlimit="10" stroke-linecap="round"/>
<path d="M74.337 121.636L69.4809 124.448L64.1136 125.47L58.7462 125.214L53.6345 123.17" stroke="white" stroke-width="1.5" stroke-miterlimit="10" stroke-linecap="round"/>
<path d="M78.682 134.671L72.5479 137.227L66.1583 138.249L59.7686 137.227L53.6345 134.671" stroke="white" stroke-width="1.5" stroke-miterlimit="10" stroke-linecap="round"/>
<path d="M55.4236 81.2539L53.6345 86.6212" stroke="white" stroke-width="1.5" stroke-miterlimit="10" stroke-linecap="round"/>
<path d="M60.5431 64.6411L55.4314 81.2542" stroke="white" stroke-width="1.5" stroke-miterlimit="10" stroke-linecap="round"/>
</svg>
